<svg width="24" height="24" viewBox="0 0 24 24" fill="none" xmlns="http://www.w3.org/2000/svg">
<path id="Vector" d="M16.2857 6.85714H0V16.2857C0 17.4224 0.451529 18.5124 1.25526 19.3162C2.05898 20.1199 3.14907 20.5714 4.28571 20.5714H7.88571C7.15214 19.1339 6.79983 17.5322 6.86251 15.9195C6.92519 14.3069 7.40076 12.7373 8.24371 11.3611C9.08665 9.98482 10.2687 8.84799 11.6768 8.0594C13.0849 7.2708 14.6718 6.85684 16.2857 6.85714ZM20.5714 4.28571C20.5714 3.14907 20.1199 2.05898 19.3162 1.25526C18.5124 0.451529 17.4224 0 16.2857 0H4.28571C3.14907 0 2.05898 0.451529 1.25526 1.25526C0.451529 2.05898 0 3.14907 0 4.28571V5.14286H20.5714V4.28571ZM24 16.2857C24 18.3317 23.1872 20.2938 21.7405 21.7405C20.2938 23.1872 18.3317 24 16.2857 24C14.2398 24 12.2776 23.1872 10.8309 21.7405C9.38418 20.2938 8.57143 18.3317 8.57143 16.2857C8.57143 14.2398 9.38418 12.2776 10.8309 10.8309C12.2776 9.38418 14.2398 8.57143 16.2857 8.57143C18.3317 8.57143 20.2938 9.38418 21.7405 10.8309C23.1872 12.2776 24 14.2398 24 16.2857ZM17.1429 12.8571C17.1429 12.6298 17.0526 12.4118 16.8918 12.2511C16.7311 12.0903 16.513 12 16.2857 12C16.0584 12 15.8404 12.0903 15.6796 12.2511C15.5189 12.4118 15.4286 12.6298 15.4286 12.8571V15.4286H12.8571C12.6298 15.4286 12.4118 15.5189 12.2511 15.6796C12.0903 15.8404 12 16.0584 12 16.2857C12 16.513 12.0903 16.7311 12.2511 16.8918C12.4118 17.0526 12.6298 17.1429 12.8571 17.1429H15.4286V19.7143C15.4286 19.9416 15.5189 20.1596 15.6796 20.3204C15.8404 20.4811 16.0584 20.5714 16.2857 20.5714C16.513 20.5714 16.7311 20.4811 16.8918 20.3204C17.0526 20.1596 17.1429 19.9416 17.1429 19.7143V17.1429H19.7143C19.9416 17.1429 20.1596 17.0526 20.3204 16.8918C20.4811 16.7311 20.5714 16.513 20.5714 16.2857C20.5714 16.0584 20.4811 15.8404 20.3204 15.6796C20.1596 15.5189 19.9416 15.4286 19.7143 15.4286H17.1429V12.8571Z" fill="#2C8987"/>
</svg>
